<svg id="svg" version="1.1" xmlns="http://www.w3.org/2000/svg" xmlns:xlink="http://www.w3.org/1999/xlink" width="400" height="400" viewBox="0, 0, 400,400"><g id="svgg"><path id="path0" d="M0.000 200.000 L 0.000 240.000 79.520 240.000 C 140.836 240.000,159.150 240.110,159.520 240.480 C 159.890 240.850,160.000 259.164,160.000 320.480 L 160.000 400.000 200.000 400.000 L 240.000 400.000 240.000 280.243 C 240.000 171.409,239.942 160.463,239.367 160.243 C 239.019 160.109,185.019 160.000,119.367 160.000 L 0.000 160.000 0.000 200.000 " stroke="none" fill="#fcfcfc" fill-rule="evenodd"></path><path id="path1" d="M0.000 80.000 L 0.000 160.000 119.367 160.000 C 185.019 160.000,239.019 160.109,239.367 160.243 C 239.942 160.463,240.000 171.409,240.000 280.243 L 240.000 400.000 320.000 400.000 L 400.000 400.000 400.000 200.000 L 400.000 0.000 200.000 0.000 L 0.000 0.000 0.000 80.000 M0.000 320.000 L 0.000 400.000 80.000 400.000 L 160.000 400.000 160.000 320.480 C 160.000 259.164,159.890 240.850,159.520 240.480 C 159.150 240.110,140.836 240.000,79.520 240.000 L 0.000 240.000 0.000 320.000 " stroke="none" fill="#dc2211" fill-rule="evenodd"></path></g></svg>
